<svg width="233" height="64" viewBox="0 0 233 64" fill="none" xmlns="http://www.w3.org/2000/svg">
<mask id="mask0_240_3370" style="mask-type:luminance" maskUnits="userSpaceOnUse" x="0" y="0" width="233" height="64">
<path d="M232.104 0H0V63.4177H232.104V0Z" fill="white"/>
</mask>
<g mask="url(#mask0_240_3370)">
<path d="M8.61039 60.4816C8.28416 60.8894 7.81809 61.169 7.21223 61.3321L8.36573 63.3595H7.41032L6.3151 61.4486H4.46255L4.0897 63.3595H3.18091L4.43926 57.126H6.7928C7.52683 57.126 8.09774 57.2892 8.50554 57.6037C8.91333 57.9183 9.11139 58.3727 9.11139 58.9553C9.11139 59.5728 8.94829 60.0738 8.62206 60.4816M7.68993 60.2719C8.03947 59.9922 8.22592 59.5728 8.22592 59.0368C8.22592 58.664 8.09773 58.3844 7.84141 58.1863C7.58508 57.9999 7.21225 57.9067 6.7229 57.9067H5.20821L4.63731 60.703H6.19858C6.85105 60.703 7.34041 60.5631 7.7016 60.2719" fill="#17286A"/>
<path d="M11.5347 61.2622V61.3205C11.5347 61.7632 11.6628 62.0895 11.9075 62.3225C12.1638 62.5555 12.5367 62.6604 13.0377 62.6604C13.329 62.6604 13.6086 62.6138 13.8649 62.5089C14.1213 62.4157 14.3426 62.2759 14.5174 62.1128L14.8903 62.7303C14.6572 62.94 14.3659 63.1148 14.0397 63.2313C13.7135 63.3478 13.3523 63.406 12.9794 63.406C12.5134 63.406 12.1056 63.3245 11.7677 63.1614C11.4298 62.9983 11.1618 62.7536 10.9754 62.4507C10.789 62.1477 10.6958 61.7865 10.6958 61.3671C10.6958 60.8428 10.8123 60.3651 11.0453 59.9456C11.2783 59.5262 11.593 59.2 12.0124 58.9553C12.4202 58.7223 12.8862 58.5941 13.3872 58.5941C14.0397 58.5941 14.5523 58.7805 14.9368 59.1417C15.3213 59.5029 15.5194 60.0039 15.5194 60.6331C15.5194 60.8195 15.4961 61.0292 15.4612 61.2622H11.5463H11.5347ZM12.2454 59.6543C11.9425 59.8874 11.7327 60.2136 11.6279 60.6331H14.7038C14.7271 60.2136 14.6106 59.8874 14.3659 59.6543C14.1213 59.4213 13.7717 59.3048 13.3406 59.3048C12.9095 59.3048 12.5483 59.4213 12.2454 59.6543ZM14.3193 56.7998H15.4378L13.8067 57.9533H12.9561L14.3193 56.7998Z" fill="#17286A"/>
<path d="M17.8384 61.2622V61.3205C17.8384 61.7632 17.9665 62.0895 18.2112 62.3225C18.4675 62.5555 18.8404 62.6604 19.3414 62.6604C19.6327 62.6604 19.9123 62.6138 20.1687 62.5089C20.425 62.4157 20.6464 62.2759 20.8211 62.1128L21.1939 62.7303C20.9609 62.94 20.6696 63.1148 20.3434 63.2313C20.0172 63.3478 19.656 63.406 19.2831 63.406C18.8171 63.406 18.4093 63.3245 18.0714 63.1614C17.7335 62.9983 17.4656 62.7536 17.2791 62.4507C17.0927 62.1477 16.9995 61.7865 16.9995 61.3671C16.9995 60.8428 17.116 60.3651 17.349 59.9456C17.5821 59.5262 17.8966 59.2 18.3161 58.9553C18.7239 58.7223 19.1899 58.5941 19.6909 58.5941C20.3434 58.5941 20.8561 58.7805 21.2405 59.1417C21.625 59.5029 21.8231 60.0039 21.8231 60.6331C21.8231 60.8195 21.7998 61.0292 21.7649 61.2622H17.85H17.8384ZM18.5491 59.6543C18.2462 59.8874 18.0365 60.2136 17.9316 60.6331H21.0075C21.0308 60.2136 20.9143 59.8874 20.6696 59.6543C20.425 59.4213 20.0754 59.3048 19.6443 59.3048C19.2132 59.3048 18.852 59.4213 18.5491 59.6543ZM20.623 56.7998H21.7415L20.1104 57.9533H19.2599L20.623 56.7998Z" fill="#17286A"/>
<path d="M29.1282 56.7532L27.7999 63.3595H26.9727L27.0892 62.7769C26.8795 62.975 26.6232 63.1381 26.3435 63.243C26.0639 63.3595 25.7493 63.4061 25.4115 63.4061C25.0037 63.4061 24.6424 63.3245 24.3279 63.1614C24.0133 62.9983 23.757 62.7653 23.5822 62.4507C23.4074 62.1478 23.3142 61.7749 23.3142 61.3671C23.3142 60.8312 23.4307 60.3535 23.6638 59.934C23.8968 59.5146 24.223 59.1884 24.6308 58.9437C25.0386 58.7107 25.5046 58.5825 26.0056 58.5825C26.4134 58.5825 26.763 58.6524 27.0659 58.8039C27.3688 58.9553 27.5902 59.165 27.7417 59.4447L28.2777 56.7416H29.1398L29.1282 56.7532ZM26.5533 62.4158C26.8329 62.2526 27.0543 62.008 27.2174 61.705C27.3805 61.4021 27.4504 61.0526 27.4504 60.6681C27.4504 60.2486 27.3223 59.9224 27.0776 59.6893C26.8329 59.4563 26.4834 59.3398 26.029 59.3398C25.6794 59.3398 25.3532 59.4214 25.0736 59.5961C24.7939 59.7709 24.5725 60.0039 24.4094 60.3069C24.2463 60.6098 24.1648 60.9477 24.1648 61.3438C24.1648 61.7633 24.2929 62.0895 24.5376 62.3225C24.7823 62.5556 25.1318 62.6721 25.5862 62.6721C25.9358 62.6721 26.262 62.5905 26.5416 62.4158" fill="#17286A"/>
<path d="M35.6411 58.6407L34.6974 63.3595H33.8701L33.9867 62.7536C33.7769 62.975 33.5206 63.1381 33.2293 63.243C32.938 63.3478 32.6235 63.4061 32.2856 63.4061C31.7613 63.4061 31.3418 63.2663 31.0389 62.9866C30.736 62.707 30.5845 62.3225 30.5845 61.8215C30.5845 61.6584 30.6078 61.472 30.6428 61.2739L31.167 58.6291H32.0293L31.5049 61.2856C31.47 61.4487 31.4583 61.5768 31.4583 61.6817C31.4583 61.9846 31.5516 62.2293 31.738 62.3924C31.9244 62.5555 32.1923 62.6371 32.5535 62.6371C33.0079 62.6371 33.3924 62.5089 33.6954 62.2526C33.9983 61.9963 34.1964 61.6235 34.3012 61.1341L34.8023 58.6291H35.6644L35.6411 58.6407Z" fill="#17286A"/>
<path d="M38.2165 63.1614C37.8786 62.9983 37.6106 62.7536 37.4242 62.4507C37.2378 62.1478 37.1445 61.7866 37.1445 61.3788C37.1445 60.8545 37.261 60.3768 37.5057 59.9573C37.7504 59.5379 38.0766 59.2 38.5077 58.967C38.9388 58.7223 39.4165 58.6058 39.9525 58.6058C40.8962 58.6058 41.5487 58.9437 41.9099 59.6311L41.1875 60.0272C40.9312 59.5728 40.5001 59.3515 39.8942 59.3515C39.5447 59.3515 39.2185 59.433 38.9388 59.6078C38.6592 59.7826 38.4262 60.0156 38.2631 60.3185C38.1 60.6214 38.0184 60.971 38.0184 61.3555C38.0184 61.7749 38.1465 62.1012 38.3912 62.3342C38.6359 62.5672 38.9971 62.6837 39.4515 62.6837C39.7428 62.6837 40.0108 62.6255 40.2554 62.5206C40.5001 62.4041 40.7098 62.241 40.8729 62.0196L41.5021 62.4623C41.2807 62.7653 40.9778 62.9983 40.6166 63.1731C40.2438 63.3478 39.8476 63.4294 39.4165 63.4294C38.9621 63.4294 38.566 63.3478 38.2165 63.1731" fill="#17286A"/>
<path d="M49.0169 58.6407L48.0731 63.3595H47.2459L47.3624 62.7769C47.1527 62.975 46.8964 63.1381 46.6167 63.243C46.3371 63.3595 46.0225 63.4061 45.6846 63.4061C45.2769 63.4061 44.9157 63.3245 44.6011 63.1614C44.2865 62.9983 44.0302 62.7653 43.8554 62.4507C43.6806 62.1477 43.5874 61.7749 43.5874 61.3671C43.5874 60.8311 43.7039 60.3535 43.937 59.934C44.17 59.5146 44.4962 59.1883 44.904 58.9436C45.3118 58.7106 45.7778 58.5825 46.2788 58.5825C46.6866 58.5825 47.0362 58.6524 47.3275 58.7922C47.6188 58.932 47.8401 59.1417 48.0032 59.4213L48.1664 58.6174H49.0285L49.0169 58.6407ZM46.8264 62.4157C47.1061 62.2526 47.3275 62.0079 47.4906 61.705C47.6537 61.4021 47.7236 61.0525 47.7236 60.668C47.7236 60.2486 47.5954 59.9223 47.3508 59.6893C47.1061 59.4563 46.7566 59.3398 46.3022 59.3398C45.9526 59.3398 45.6264 59.4213 45.3468 59.5961C45.0671 59.7709 44.8457 60.0039 44.6826 60.3068C44.5195 60.6098 44.438 60.9477 44.438 61.3438C44.438 61.7632 44.5661 62.0895 44.8108 62.3225C45.0555 62.5555 45.405 62.6721 45.8594 62.6721C46.2089 62.6721 46.5352 62.5905 46.8148 62.4157" fill="#17286A"/>
<path d="M51.8131 61.8565C51.7898 61.9497 51.7898 62.0312 51.7898 62.1012C51.7898 62.2876 51.8365 62.439 51.953 62.5439C52.0578 62.6488 52.2093 62.6954 52.419 62.6954C52.6753 62.6954 52.8967 62.6255 53.1064 62.474L53.2812 63.1265C52.9899 63.3245 52.6287 63.4178 52.1744 63.4178C51.8015 63.4178 51.4985 63.3129 51.2655 63.1032C51.0325 62.8935 50.916 62.6022 50.916 62.241C50.916 62.1128 50.916 61.9963 50.9509 61.8798L51.4636 59.3515H50.6597L50.7995 58.6524H51.6151L51.8248 57.6154H52.687L52.4773 58.6524H53.8405L53.7007 59.3515H52.3375L51.8248 61.8565H51.8131Z" fill="#17286A"/>
<path d="M56.1127 58.6407H56.9749L56.0312 63.3595H55.1689L56.1127 58.6407ZM56.4156 57.5804C56.3108 57.4756 56.2642 57.3591 56.2642 57.2193C56.2642 57.0561 56.3224 56.9163 56.4389 56.7998C56.5554 56.6833 56.7069 56.6251 56.8817 56.6251C57.0331 56.6251 57.173 56.6716 57.2778 56.7765C57.3827 56.8697 57.4293 56.9862 57.4293 57.1261C57.4293 57.3125 57.371 57.4523 57.2545 57.5688C57.138 57.6853 56.9865 57.7436 56.8001 57.7436C56.6486 57.7436 56.5205 57.697 56.4156 57.5921" fill="#17286A"/>
<path d="M59.5378 63.1614C59.1999 62.9866 58.9436 62.7536 58.7572 62.439C58.5708 62.1361 58.4775 61.7749 58.4775 61.3671C58.4775 60.8428 58.594 60.3651 58.8387 59.9456C59.0834 59.5262 59.4097 59.1883 59.8408 58.9553C60.2718 58.7106 60.7496 58.5941 61.2739 58.5941C61.7283 58.5941 62.1127 58.6757 62.4506 58.8388C62.7885 59.0019 63.0448 59.2466 63.2313 59.5495C63.4177 59.8524 63.5109 60.2136 63.5109 60.6214C63.5109 61.1457 63.3944 61.6234 63.1497 62.0545C62.905 62.4856 62.5788 62.8119 62.1593 63.0565C61.7399 63.3012 61.2622 63.4177 60.7263 63.4177C60.2719 63.4177 59.8874 63.3362 59.5495 63.1614M61.7399 62.4157C62.0195 62.2526 62.2409 62.0079 62.404 61.705C62.5672 61.402 62.637 61.0525 62.637 60.668C62.637 60.2486 62.5089 59.9223 62.2642 59.6893C62.0195 59.4563 61.67 59.3398 61.2156 59.3398C60.8661 59.3398 60.5398 59.4213 60.2602 59.5961C59.9805 59.7709 59.7592 60.0039 59.5961 60.3068C59.433 60.6097 59.3514 60.9477 59.3514 61.3438C59.3514 61.7632 59.4796 62.0895 59.7242 62.3225C59.9689 62.5555 60.3184 62.6721 60.7728 62.6721C61.1224 62.6721 61.4486 62.5905 61.7282 62.4157" fill="#17286A"/>
<path d="M69.663 59.0019C69.9659 59.2699 70.1174 59.666 70.1174 60.1554C70.1174 60.3302 70.0941 60.5166 70.0591 60.703L69.5232 63.3478H68.661L69.197 60.703C69.2319 60.5399 69.2436 60.4117 69.2436 60.3068C69.2436 60.0039 69.1503 59.7592 68.9639 59.5961C68.7775 59.433 68.4979 59.3514 68.1367 59.3514C67.6706 59.3514 67.2862 59.4796 66.9832 59.7243C66.6803 59.9806 66.4822 60.3534 66.3773 60.8544L65.8763 63.3478H65.0142L65.9579 58.6291H66.7851L66.6686 59.2349C67.0997 58.8038 67.6706 58.5825 68.393 58.5825C68.9406 58.5825 69.3601 58.7223 69.663 58.9903" fill="#17286A"/>
<path d="M76.106 61.2739V61.3322C76.106 61.7749 76.2342 62.1012 76.4788 62.3342C76.7352 62.5672 77.108 62.6721 77.609 62.6721C77.9003 62.6721 78.1799 62.6254 78.4362 62.5322C78.6926 62.4274 78.9139 62.2992 79.0887 62.1361L79.4615 62.7536C79.2285 62.9633 78.9372 63.1381 78.611 63.2546C78.2731 63.3712 77.9236 63.4294 77.5508 63.4294C77.0847 63.4294 76.6769 63.3478 76.339 63.1847C76.0011 63.0216 75.7332 62.7769 75.5467 62.474C75.3603 62.1711 75.2671 61.7982 75.2671 61.3904C75.2671 60.8661 75.3836 60.3884 75.6166 59.969C75.8497 59.5495 76.1642 59.2233 76.5837 58.9786C76.9915 58.7456 77.4575 58.6174 77.9585 58.6174C78.611 58.6174 79.1237 58.8039 79.5082 59.165C79.8927 59.5262 80.0907 60.0272 80.0907 60.6564C80.0907 60.8428 80.0674 61.0526 80.0324 61.2856H76.1176L76.106 61.2739ZM76.8167 59.666C76.5138 59.8991 76.3041 60.2253 76.1992 60.6447H79.2751C79.2984 60.2253 79.1819 59.8991 78.9372 59.6544C78.6925 59.4213 78.343 59.3049 77.9119 59.3049C77.4808 59.3049 77.1197 59.4214 76.8167 59.666Z" fill="#17286A"/>
<path d="M82.8522 61.8565C82.8289 61.9497 82.8289 62.0312 82.8289 62.1012C82.8289 62.2876 82.8755 62.439 82.992 62.5439C83.0969 62.6488 83.2483 62.6954 83.458 62.6954C83.7144 62.6954 83.9357 62.6255 84.1455 62.474L84.3203 63.1265C84.029 63.3245 83.6678 63.4178 83.2134 63.4178C82.8405 63.4178 82.526 63.3129 82.3046 63.1032C82.0716 62.8935 81.9551 62.6022 81.9551 62.241C81.9551 62.1128 81.9551 61.9963 81.99 61.8798L82.5027 59.3515H81.6987L81.8385 58.6524H82.6541L82.8639 57.6154H83.726L83.5163 58.6524H84.8795L84.7397 59.3515H83.3765L82.8639 61.8565H82.8522Z" fill="#17286A"/>
<path d="M92.2316 57.9067L91.8005 60.0738H94.958L94.8066 60.8428H91.649L91.1364 63.3595H90.2393L91.4976 57.126H95.9367L95.7853 57.9067H92.2316Z" fill="#17286A"/>
<path d="M97.801 63.1614C97.4631 62.9866 97.2068 62.7536 97.0203 62.439C96.8339 62.1361 96.7407 61.7749 96.7407 61.3671C96.7407 60.8428 96.8572 60.3651 97.1019 59.9456C97.3466 59.5262 97.6728 59.1883 98.1039 58.9553C98.535 58.7106 99.0127 58.5941 99.537 58.5941C99.9914 58.5941 100.376 58.6757 100.714 58.8388C101.052 59.0019 101.308 59.2466 101.494 59.5495C101.681 59.8524 101.774 60.2136 101.774 60.6214C101.774 61.1457 101.658 61.6234 101.413 62.0545C101.168 62.4856 100.842 62.8119 100.422 63.0565C100.003 63.3012 99.5254 63.4177 98.9894 63.4177C98.535 63.4177 98.1505 63.3362 97.8126 63.1614M100.003 62.4157C100.283 62.2526 100.504 62.0079 100.667 61.705C100.83 61.402 100.9 61.0525 100.9 60.668C100.9 60.2486 100.772 59.9223 100.527 59.6893C100.283 59.4563 99.9331 59.3398 99.4787 59.3398C99.1292 59.3398 98.803 59.4213 98.5234 59.5961C98.2437 59.7709 98.0223 60.0039 97.8592 60.3068C97.6961 60.6097 97.6146 60.9477 97.6146 61.3438C97.6146 61.7632 97.7427 62.0895 97.9874 62.3225C98.2321 62.5555 98.5816 62.6721 99.036 62.6721C99.3855 62.6721 99.7118 62.5905 99.9914 62.4157" fill="#17286A"/>
<path d="M105.677 58.7689C105.98 58.6524 106.353 58.5941 106.796 58.5941L106.632 59.4213C106.632 59.4213 106.504 59.4213 106.411 59.4213C105.421 59.4213 104.826 59.9456 104.617 61.0059L104.139 63.3595H103.277L104.221 58.6407H105.048L104.908 59.3398C105.118 59.0835 105.374 58.8854 105.677 58.7689Z" fill="#17286A"/>
<path d="M116.012 59.0019C116.314 59.2699 116.466 59.6544 116.466 60.1554C116.466 60.2952 116.443 60.4816 116.408 60.7146L115.872 63.3595H115.01L115.545 60.7146C115.58 60.5515 115.592 60.4117 115.592 60.3068C115.592 60.0039 115.511 59.7592 115.336 59.6078C115.161 59.4447 114.893 59.3631 114.543 59.3631C114.101 59.3631 113.74 59.4796 113.448 59.7359C113.157 59.9806 112.971 60.3534 112.866 60.8428L112.353 63.3595H111.491L112.027 60.7146C112.05 60.5515 112.073 60.4233 112.073 60.3185C112.073 60.0155 111.98 59.7709 111.805 59.6078C111.631 59.4447 111.363 59.3631 111.013 59.3631C110.57 59.3631 110.209 59.4912 109.918 59.7359C109.627 59.9806 109.44 60.3651 109.335 60.8661L108.834 63.3595H107.972L108.916 58.6407H109.743L109.627 59.2349C110.046 58.8155 110.594 58.6057 111.281 58.6057C111.654 58.6057 111.969 58.6756 112.237 58.8155C112.505 58.9553 112.691 59.165 112.807 59.433C113.297 58.8737 113.938 58.5941 114.753 58.5941C115.289 58.5941 115.709 58.7339 116.012 59.0019Z" fill="#17286A"/>
<path d="M124.214 58.6407L123.27 63.3595H122.443L122.56 62.7769C122.35 62.975 122.094 63.1381 121.814 63.243C121.534 63.3595 121.22 63.4061 120.882 63.4061C120.474 63.4061 120.113 63.3245 119.798 63.1614C119.484 62.9983 119.227 62.7653 119.053 62.4507C118.878 62.1477 118.785 61.7749 118.785 61.3671C118.785 60.8311 118.901 60.3535 119.134 59.934C119.367 59.5146 119.693 59.1883 120.101 58.9436C120.509 58.7106 120.975 58.5825 121.476 58.5825C121.884 58.5825 122.233 58.6524 122.525 58.7922C122.816 58.932 123.037 59.1417 123.201 59.4213L123.364 58.6174H124.226L124.214 58.6407ZM122.024 62.4157C122.303 62.2526 122.525 62.0079 122.688 61.705C122.851 61.4021 122.921 61.0525 122.921 60.668C122.921 60.2486 122.793 59.9223 122.548 59.6893C122.303 59.4563 121.954 59.3398 121.499 59.3398C121.15 59.3398 120.824 59.4213 120.544 59.5961C120.264 59.7709 120.043 60.0039 119.88 60.3068C119.717 60.6098 119.635 60.9477 119.635 61.3438C119.635 61.7632 119.763 62.0895 120.008 62.3225C120.253 62.5555 120.602 62.6721 121.057 62.6721C121.406 62.6721 121.732 62.5905 122.012 62.4157" fill="#17286A"/>
<path d="M126.999 61.8565C126.975 61.9497 126.975 62.0312 126.975 62.1012C126.975 62.2876 127.022 62.439 127.139 62.5439C127.243 62.6488 127.395 62.6954 127.605 62.6954C127.861 62.6954 128.082 62.6255 128.292 62.474L128.467 63.1265C128.175 63.3245 127.814 63.4178 127.36 63.4178C126.987 63.4178 126.672 63.3129 126.451 63.1032C126.218 62.8935 126.102 62.6022 126.102 62.241C126.102 62.1128 126.102 61.9963 126.136 61.8798L126.649 59.3515H125.845L125.985 58.6524H126.801L127.01 57.6154H127.873L127.663 58.6524H129.026L128.886 59.3515H127.523L127.01 61.8565H126.999Z" fill="#17286A"/>
<path d="M131.298 58.6407H132.16L131.217 63.3595H130.354L131.298 58.6407ZM131.601 57.5804C131.496 57.4756 131.45 57.3591 131.45 57.2193C131.45 57.0561 131.508 56.9163 131.624 56.7998C131.741 56.6833 131.892 56.6251 132.067 56.6251C132.219 56.6251 132.359 56.6716 132.463 56.7765C132.568 56.8697 132.615 56.9862 132.615 57.1261C132.615 57.3125 132.557 57.4523 132.44 57.5688C132.324 57.6853 132.172 57.7436 131.986 57.7436C131.834 57.7436 131.706 57.697 131.601 57.5921" fill="#17286A"/>
<path d="M134.723 63.1614C134.385 62.9866 134.129 62.7536 133.943 62.439C133.756 62.1361 133.663 61.7749 133.663 61.3671C133.663 60.8428 133.78 60.3651 134.024 59.9456C134.269 59.5262 134.595 59.1883 135.026 58.9553C135.446 58.7106 135.935 58.5941 136.459 58.5941C136.914 58.5941 137.298 58.6757 137.636 58.8388C137.974 59.0019 138.23 59.2466 138.417 59.5495C138.603 59.8524 138.696 60.2136 138.696 60.6214C138.696 61.1457 138.58 61.6234 138.335 62.0545C138.091 62.4856 137.764 62.8119 137.345 63.0565C136.925 63.3012 136.448 63.4177 135.912 63.4177C135.457 63.4177 135.073 63.3362 134.735 63.1614M136.925 62.4157C137.205 62.2526 137.426 62.0079 137.59 61.705C137.753 61.402 137.823 61.0525 137.823 60.668C137.823 60.2486 137.694 59.9223 137.45 59.6893C137.205 59.4563 136.856 59.3398 136.401 59.3398C136.052 59.3398 135.725 59.4213 135.446 59.5961C135.166 59.7709 134.945 60.0039 134.782 60.3068C134.619 60.6097 134.537 60.9477 134.537 61.3438C134.537 61.7632 134.665 62.0895 134.91 62.3225C135.154 62.5555 135.504 62.6721 135.958 62.6721C136.308 62.6721 136.634 62.5905 136.914 62.4157" fill="#17286A"/>
<path d="M144.849 59.0019C145.151 59.2699 145.303 59.666 145.303 60.1554C145.303 60.3302 145.28 60.5166 145.245 60.703L144.709 63.3478H143.847L144.383 60.703C144.417 60.5399 144.429 60.4117 144.429 60.3068C144.429 60.0039 144.336 59.7592 144.149 59.5961C143.963 59.433 143.683 59.3514 143.322 59.3514C142.856 59.3514 142.472 59.4796 142.169 59.7243C141.866 59.9806 141.668 60.3534 141.563 60.8544L141.062 63.3478H140.2L141.143 58.6291H141.971L141.854 59.2349C142.285 58.8038 142.856 58.5825 143.579 58.5825C144.126 58.5825 144.546 58.7223 144.849 58.9903" fill="#17286A"/>
<path d="M155.871 57.6037C156.279 57.9183 156.477 58.3727 156.477 58.9553C156.477 59.4796 156.36 59.934 156.127 60.3185C155.894 60.6913 155.544 60.9826 155.102 61.1806C154.659 61.3787 154.135 61.4836 153.529 61.4836H151.851L151.478 63.3711H150.581L151.839 57.1377H154.181C154.915 57.1377 155.475 57.3008 155.882 57.6154M155.055 60.2835C155.405 60.0039 155.579 59.5844 155.579 59.0485C155.579 58.6756 155.451 58.396 155.195 58.2096C154.939 58.0115 154.566 57.9183 154.088 57.9183H152.573L152.003 60.7146H153.54C154.193 60.7146 154.682 60.5748 155.043 60.2835" fill="#17286A"/>
<path d="M160.356 58.7689C160.659 58.6524 161.032 58.5941 161.475 58.5941L161.312 59.4213C161.312 59.4213 161.183 59.4213 161.09 59.4213C160.1 59.4213 159.506 59.9456 159.296 61.0059L158.818 63.3595H157.956L158.9 58.6407H159.727L159.587 59.3398C159.797 59.0835 160.053 58.8854 160.356 58.7689Z" fill="#17286A"/>
<path d="M163.7 63.1614C163.362 62.9866 163.106 62.7536 162.919 62.439C162.733 62.1361 162.64 61.7749 162.64 61.3671C162.64 60.8428 162.756 60.3651 163.001 59.9456C163.246 59.5262 163.572 59.1883 164.003 58.9553C164.434 58.7106 164.912 58.5941 165.436 58.5941C165.89 58.5941 166.275 58.6757 166.613 58.8388C166.951 59.0019 167.207 59.2466 167.393 59.5495C167.58 59.8524 167.673 60.2136 167.673 60.6214C167.673 61.1457 167.556 61.6234 167.312 62.0545C167.067 62.4856 166.741 62.8119 166.321 63.0565C165.902 63.3012 165.424 63.4177 164.888 63.4177C164.434 63.4177 164.049 63.3362 163.712 63.1614M165.902 62.4157C166.182 62.2526 166.403 62.0079 166.566 61.705C166.729 61.402 166.799 61.0525 166.799 60.668C166.799 60.2486 166.671 59.9223 166.426 59.6893C166.182 59.4563 165.832 59.3398 165.378 59.3398C165.028 59.3398 164.702 59.4213 164.422 59.5961C164.143 59.7709 163.921 60.0039 163.758 60.3068C163.595 60.6097 163.513 60.9477 163.513 61.3438C163.513 61.7632 163.642 62.0895 163.886 62.3225C164.131 62.5555 164.481 62.6721 164.935 62.6721C165.284 62.6721 165.611 62.5905 165.89 62.4157" fill="#17286A"/>
<path d="M171.483 57.6154C171.332 57.7552 171.227 57.9766 171.157 58.2679L171.076 58.6407H172.462L172.322 59.3398H170.959L170.143 63.3595H169.281L170.097 59.3398H169.281L169.421 58.6407H170.248L170.342 58.198C170.435 57.7203 170.633 57.3474 170.936 57.0911C171.227 56.8348 171.623 56.7066 172.112 56.7066C172.311 56.7066 172.497 56.7299 172.672 56.7882C172.847 56.8464 172.998 56.9163 173.115 57.0095L172.753 57.6387C172.59 57.4873 172.369 57.4173 172.112 57.4173C171.856 57.4173 171.646 57.4872 171.507 57.6271" fill="#17286A"/>
<path d="M174.676 61.2739V61.3322C174.676 61.7749 174.804 62.1012 175.049 62.3342C175.305 62.5672 175.678 62.6721 176.179 62.6721C176.47 62.6721 176.75 62.6254 177.006 62.5322C177.262 62.4274 177.484 62.2992 177.659 62.1361L178.031 62.7536C177.798 62.9633 177.507 63.1381 177.181 63.2546C176.843 63.3712 176.493 63.4294 176.121 63.4294C175.654 63.4294 175.247 63.3478 174.909 63.1847C174.571 63.0216 174.303 62.7769 174.117 62.474C173.93 62.1711 173.837 61.7982 173.837 61.3904C173.837 60.8661 173.953 60.3884 174.186 59.969C174.419 59.5495 174.734 59.2233 175.154 58.9786C175.561 58.7456 176.027 58.6174 176.528 58.6174C177.181 58.6174 177.693 58.8039 178.078 59.165C178.462 59.5262 178.661 60.0272 178.661 60.6564C178.661 60.8428 178.637 61.0526 178.602 61.2856H174.687L174.676 61.2739ZM175.387 59.666C175.084 59.8991 174.874 60.2253 174.769 60.6447H177.845C177.868 60.2253 177.752 59.8991 177.507 59.6544C177.262 59.4213 176.913 59.3049 176.482 59.3049C176.051 59.3049 175.689 59.4214 175.387 59.666Z" fill="#17286A"/>
<path d="M180.524 63.2663C180.163 63.1614 179.895 63.0332 179.697 62.8701L180.082 62.1944C180.268 62.3458 180.513 62.4623 180.804 62.5439C181.095 62.6254 181.41 62.6721 181.736 62.6721C182.144 62.6721 182.459 62.6138 182.668 62.4856C182.878 62.3691 182.983 62.1944 182.983 61.973C182.983 61.7982 182.901 61.67 182.727 61.5885C182.552 61.5069 182.296 61.437 181.934 61.3555C181.596 61.2856 181.328 61.2156 181.107 61.1341C180.897 61.0642 180.711 60.936 180.559 60.7729C180.408 60.6098 180.338 60.3884 180.338 60.1088C180.338 59.8058 180.431 59.5262 180.606 59.2932C180.781 59.0601 181.037 58.8854 181.363 58.7572C181.69 58.6291 182.074 58.5708 182.505 58.5708C182.82 58.5708 183.134 58.6058 183.437 58.6873C183.74 58.7689 183.985 58.8621 184.171 59.0019L183.833 59.6777C183.647 59.5495 183.426 59.4563 183.181 59.398C182.936 59.3398 182.68 59.3048 182.424 59.3048C182.028 59.3048 181.736 59.3631 181.527 59.4913C181.317 59.6194 181.212 59.7942 181.212 60.0039C181.212 60.1903 181.293 60.3302 181.468 60.4117C181.643 60.4933 181.911 60.5748 182.272 60.6447C182.598 60.7146 182.878 60.7845 183.088 60.8544C183.298 60.9243 183.472 61.0409 183.624 61.204C183.775 61.3671 183.845 61.5768 183.845 61.8565C183.845 62.3342 183.647 62.7187 183.251 62.9866C182.855 63.2546 182.319 63.3944 181.666 63.3944C181.27 63.3944 180.897 63.3478 180.536 63.243" fill="#17286A"/>
<path d="M185.733 63.2663C185.371 63.1614 185.103 63.0332 184.905 62.8701L185.29 62.1944C185.476 62.3458 185.721 62.4623 186.012 62.5439C186.303 62.6254 186.618 62.6721 186.944 62.6721C187.352 62.6721 187.667 62.6138 187.876 62.4856C188.086 62.3691 188.191 62.1944 188.191 61.973C188.191 61.7982 188.109 61.67 187.935 61.5885C187.76 61.5069 187.504 61.437 187.142 61.3555C186.804 61.2856 186.536 61.2156 186.315 61.1341C186.105 61.0642 185.919 60.936 185.767 60.7729C185.616 60.6098 185.546 60.3884 185.546 60.1088C185.546 59.8058 185.639 59.5262 185.814 59.2932C185.989 59.0601 186.245 58.8854 186.571 58.7572C186.898 58.6291 187.282 58.5708 187.713 58.5708C188.028 58.5708 188.342 58.6058 188.645 58.6873C188.948 58.7689 189.193 58.8621 189.379 59.0019L189.041 59.6777C188.855 59.5495 188.634 59.4563 188.389 59.398C188.144 59.3398 187.888 59.3048 187.632 59.3048C187.236 59.3048 186.944 59.3631 186.735 59.4913C186.525 59.6194 186.42 59.7942 186.42 60.0039C186.42 60.1903 186.501 60.3302 186.676 60.4117C186.851 60.4933 187.119 60.5748 187.48 60.6447C187.806 60.7146 188.086 60.7845 188.296 60.8544C188.506 60.9243 188.68 61.0409 188.832 61.204C188.983 61.3671 189.053 61.5768 189.053 61.8565C189.053 62.3342 188.855 62.7187 188.459 62.9866C188.063 63.2546 187.527 63.3944 186.874 63.3944C186.478 63.3944 186.105 63.3478 185.744 63.243" fill="#17286A"/>
<path d="M191.523 58.6407H192.386L191.442 63.3595H190.58L191.523 58.6407ZM191.826 57.5804C191.721 57.4756 191.675 57.3591 191.675 57.2193C191.675 57.0561 191.733 56.9163 191.85 56.7998C191.966 56.6833 192.118 56.6251 192.292 56.6251C192.444 56.6251 192.584 56.6716 192.688 56.7765C192.793 56.8697 192.84 56.9862 192.84 57.1261C192.84 57.3125 192.782 57.4523 192.665 57.5688C192.549 57.6853 192.397 57.7436 192.211 57.7436C192.059 57.7436 191.931 57.697 191.826 57.5921" fill="#17286A"/>
<path d="M194.949 63.1614C194.611 62.9866 194.355 62.7536 194.168 62.439C193.982 62.1361 193.889 61.7749 193.889 61.3671C193.889 60.8428 194.005 60.3651 194.25 59.9456C194.495 59.5262 194.821 59.1883 195.252 58.9553C195.683 58.7106 196.161 58.5941 196.685 58.5941C197.139 58.5941 197.524 58.6757 197.862 58.8388C198.2 59.0019 198.456 59.2466 198.642 59.5495C198.829 59.8524 198.922 60.2136 198.922 60.6214C198.922 61.1457 198.806 61.6234 198.561 62.0545C198.316 62.4856 197.99 62.8119 197.57 63.0565C197.151 63.3012 196.673 63.4177 196.137 63.4177C195.683 63.4177 195.298 63.3362 194.961 63.1614M197.151 62.4157C197.431 62.2526 197.652 62.0079 197.815 61.705C197.978 61.402 198.048 61.0525 198.048 60.668C198.048 60.2486 197.92 59.9223 197.675 59.6893C197.431 59.4563 197.081 59.3398 196.627 59.3398C196.277 59.3398 195.951 59.4213 195.671 59.5961C195.392 59.7709 195.17 60.0039 195.007 60.3068C194.844 60.6097 194.763 60.9477 194.763 61.3438C194.763 61.7632 194.891 62.0895 195.135 62.3225C195.38 62.5555 195.73 62.6721 196.184 62.6721C196.534 62.6721 196.86 62.5905 197.139 62.4157" fill="#17286A"/>
<path d="M205.074 59.0019C205.377 59.2699 205.528 59.666 205.528 60.1554C205.528 60.3302 205.505 60.5166 205.47 60.703L204.934 63.3478H204.072L204.608 60.703C204.643 60.5399 204.654 60.4117 204.654 60.3068C204.654 60.0039 204.561 59.7592 204.375 59.5961C204.188 59.433 203.909 59.3514 203.547 59.3514C203.081 59.3514 202.697 59.4796 202.394 59.7243C202.091 59.9806 201.893 60.3534 201.788 60.8544L201.287 63.3478H200.425L201.369 58.6291H202.196L202.079 59.2349C202.51 58.8038 203.081 58.5825 203.804 58.5825C204.351 58.5825 204.771 58.7223 205.074 58.9903" fill="#17286A"/>
<path d="M212.006 59.0019C212.309 59.2699 212.461 59.666 212.461 60.1554C212.461 60.3302 212.437 60.5166 212.402 60.703L211.866 63.3478H211.004L211.54 60.703C211.575 60.5399 211.587 60.4117 211.587 60.3068C211.587 60.0039 211.494 59.7592 211.307 59.5961C211.121 59.433 210.841 59.3514 210.48 59.3514C210.014 59.3514 209.629 59.4796 209.326 59.7243C209.024 59.9806 208.825 60.3534 208.721 60.8544L208.22 63.3478H207.357L208.301 58.6291H209.128L209.012 59.2349C209.443 58.8038 210.014 58.5825 210.736 58.5825C211.284 58.5825 211.703 58.7223 212.006 58.9903" fill="#17286A"/>
<path d="M215.117 61.2739V61.3322C215.117 61.7749 215.245 62.1012 215.49 62.3342C215.746 62.5672 216.119 62.6721 216.62 62.6721C216.912 62.6721 217.191 62.6254 217.447 62.5322C217.704 62.4274 217.925 62.2992 218.1 62.1361L218.473 62.7536C218.24 62.9633 217.948 63.1381 217.622 63.2546C217.284 63.3712 216.935 63.4294 216.562 63.4294C216.096 63.4294 215.688 63.3478 215.35 63.1847C215.012 63.0216 214.744 62.7769 214.558 62.474C214.372 62.1711 214.278 61.7982 214.278 61.3904C214.278 60.8661 214.395 60.3884 214.628 59.969C214.861 59.5495 215.175 59.2233 215.595 58.9786C216.003 58.7456 216.469 58.6174 216.97 58.6174C217.622 58.6174 218.135 58.8039 218.519 59.165C218.904 59.5262 219.102 60.0272 219.102 60.6564C219.102 60.8428 219.079 61.0526 219.044 61.2856H215.129L215.117 61.2739ZM215.828 59.666C215.525 59.8991 215.315 60.2253 215.21 60.6447H218.286C218.31 60.2253 218.193 59.8991 217.948 59.6544C217.704 59.4213 217.354 59.3049 216.923 59.3049C216.492 59.3049 216.131 59.4214 215.828 59.666Z" fill="#17286A"/>
<path d="M221.922 56.7532H222.784L221.455 63.3595H220.593L221.922 56.7532Z" fill="#17286A"/>
<path d="M225.242 56.7532H226.104L224.776 63.3595H223.914L225.242 56.7532Z" fill="#17286A"/>
<path d="M228.062 61.2739V61.3322C228.062 61.7749 228.19 62.1012 228.434 62.3342C228.691 62.5672 229.064 62.6721 229.565 62.6721C229.856 62.6721 230.135 62.6254 230.392 62.5322C230.648 62.4274 230.869 62.2992 231.044 62.1361L231.417 62.7536C231.184 62.9633 230.893 63.1381 230.567 63.2546C230.229 63.3712 229.879 63.4294 229.506 63.4294C229.04 63.4294 228.632 63.3478 228.295 63.1847C227.957 63.0216 227.689 62.7769 227.502 62.474C227.316 62.1711 227.223 61.7982 227.223 61.3904C227.223 60.8661 227.339 60.3884 227.572 59.969C227.805 59.5495 228.12 59.2233 228.539 58.9786C228.947 58.7456 229.413 58.6174 229.914 58.6174C230.567 58.6174 231.079 58.8039 231.464 59.165C231.848 59.5262 232.046 60.0272 232.046 60.6564C232.046 60.8428 232.023 61.0526 231.988 61.2856H228.073L228.062 61.2739ZM228.772 59.666C228.469 59.8991 228.26 60.2253 228.155 60.6447H231.231C231.254 60.2253 231.138 59.8991 230.893 59.6544C230.648 59.4213 230.299 59.3049 229.868 59.3049C229.436 59.3049 229.075 59.4214 228.772 59.666Z" fill="#17286A"/>
<path d="M125.1 11.1037C124.319 10.626 123.702 9.95018 123.259 9.09964C122.816 8.23745 122.583 7.27041 122.583 6.19849C122.583 5.12658 122.804 4.14785 123.259 3.29731C123.702 2.43512 124.319 1.771 125.1 1.29329C125.88 0.815593 126.754 0.570923 127.733 0.570923C128.56 0.570923 129.294 0.734032 129.958 1.07192C130.622 1.4098 131.182 1.87587 131.636 2.50503L130.226 3.99639C129.585 3.14585 128.793 2.71475 127.838 2.71475C127.255 2.71475 126.731 2.86622 126.265 3.1575C125.799 3.44878 125.449 3.86822 125.193 4.39253C124.937 4.92849 124.808 5.52272 124.808 6.19849C124.808 6.87427 124.937 7.48012 125.193 8.00442C125.449 8.52873 125.81 8.94817 126.265 9.23945C126.719 9.53073 127.255 9.68221 127.838 9.68221C128.781 9.68221 129.585 9.25109 130.226 8.3889L131.636 9.88026C131.182 10.5094 130.622 10.9988 129.958 11.325C129.294 11.6629 128.548 11.826 127.721 11.826C126.754 11.826 125.88 11.5814 125.1 11.1037Z" fill="#17286A"/>
<path d="M140.258 9.61225V11.6396H132.917V0.734009H140.083V2.76131H135.096V5.12652H139.5V7.09558H135.096V9.61225H140.258Z" fill="#17286A"/>
<path d="M150.511 0.734009V11.6396H148.705L143.975 5.02166V11.6396H141.808V0.734009H143.625L148.332 7.35191V0.734009H150.511Z" fill="#17286A"/>
<path d="M154.519 2.79627H151.478V0.734009H159.75V2.79627H156.709V11.6396H154.519V2.79627Z" fill="#17286A"/>
<path d="M166.764 11.6396L164.935 8.5986H162.919V11.6396H160.717V0.734009H164.83C165.669 0.734009 166.403 0.89713 167.021 1.21171C167.638 1.53795 168.116 1.99234 168.454 2.58655C168.792 3.18077 168.955 3.87983 168.955 4.68376C168.955 5.4877 168.78 6.18679 168.442 6.78101C168.104 7.36357 167.626 7.81794 166.997 8.13252L169.129 11.6396H166.776H166.764ZM166.205 3.28563C165.856 2.9594 165.354 2.79627 164.702 2.79627H162.908V6.59458H164.702C165.366 6.59458 165.867 6.43144 166.205 6.09355C166.543 5.75567 166.718 5.28964 166.718 4.69543C166.718 4.10121 166.543 3.61187 166.205 3.28563Z" fill="#17286A"/>
<path d="M177.822 9.61225V11.6396H170.481V0.734009H177.647V2.76131H172.66V5.12652H177.064V7.09558H172.66V9.61225H177.822Z" fill="#17286A"/>
<path d="M183.006 0.734009H187.317C188.343 0.734009 189.263 0.955367 190.044 1.40977C190.836 1.86416 191.453 2.49335 191.885 3.32059C192.327 4.13617 192.537 5.09157 192.537 6.18678C192.537 7.282 192.316 8.23739 191.885 9.05298C191.442 9.86857 190.836 10.5094 190.044 10.9638C189.251 11.4182 188.343 11.6396 187.317 11.6396H183.006V0.734009ZM187.212 9.56564C188.156 9.56564 188.914 9.26271 189.484 8.65684C190.044 8.05098 190.335 7.22374 190.335 6.18678C190.335 5.14982 190.055 4.32259 189.484 3.71672C188.925 3.11086 188.168 2.80793 187.212 2.80793H185.208V9.56564H187.212Z" fill="#17286A"/>
<path d="M201.334 9.61225V11.6396H193.994V0.734009H201.159V2.76131H196.172V5.12652H200.577V7.09558H196.172V9.61225H201.334Z" fill="#17286A"/>
<path d="M129.224 28.2193L127.395 25.1783H125.379V28.2193H123.177V17.3137H127.29C128.129 17.3137 128.863 17.4768 129.481 17.7914C130.098 18.1177 130.576 18.5721 130.914 19.1663C131.252 19.7605 131.415 20.4596 131.415 21.2635C131.415 22.0674 131.24 22.7665 130.902 23.3607C130.564 23.9433 130.086 24.3977 129.457 24.7123L131.589 28.2193H129.236H129.224ZM128.665 19.8653C128.315 19.5391 127.814 19.376 127.162 19.376H125.368V23.1743H127.162C127.826 23.1743 128.327 23.0112 128.665 22.6733C129.003 22.3354 129.178 21.8694 129.178 21.2751C129.178 20.6809 129.003 20.1916 128.665 19.8653Z" fill="#17286A"/>
<path d="M140.293 26.2037V28.231H132.953V17.3254H140.118V19.3527H135.131V21.7179H139.536V23.687H135.131V26.2153H140.293V26.2037ZM137.135 14.1912H139.407L136.961 16.4399H135.306L137.135 14.1912Z" fill="#17286A"/>
<path d="M148.076 25.8891H143.672L142.833 28.2309H140.584L144.813 17.3254H146.981L151.222 28.2309H148.915L148.076 25.8891ZM147.388 23.9782L145.885 19.8071L144.382 23.9782H147.388Z" fill="#17286A"/>
<path d="M152.014 17.3137H156.325C157.35 17.3137 158.271 17.5351 159.052 17.9895C159.844 18.4439 160.461 19.0731 160.892 19.9003C161.335 20.7159 161.545 21.6713 161.545 22.7665C161.545 23.8617 161.324 24.8171 160.892 25.6327C160.45 26.4483 159.844 27.0891 159.052 27.5435C158.259 27.9979 157.35 28.2193 156.325 28.2193H152.014V17.3137ZM156.22 26.1454C157.164 26.1454 157.921 25.8425 158.492 25.2366C159.052 24.6307 159.343 23.8035 159.343 22.7665C159.343 21.7296 159.063 20.9023 158.492 20.2964C157.933 19.6906 157.176 19.3876 156.22 19.3876H154.216V26.1454H156.22Z" fill="#17286A"/>
<path d="M169.118 25.8891H164.714L163.875 28.2309H161.626L165.856 17.3254H168.023L172.264 28.2309H169.957L169.118 25.8891ZM168.431 23.9782L166.928 19.8071L165.425 23.9782H168.431Z" fill="#17286A"/>
<path d="M179.336 17.8031C179.954 18.1293 180.431 18.5837 180.769 19.1779C181.107 19.7721 181.27 20.4712 181.27 21.2751C181.27 22.0791 181.107 22.7782 180.769 23.3724C180.431 23.9666 179.954 24.421 179.336 24.7472C178.719 25.0618 177.984 25.2249 177.146 25.2249H175.235V28.2309H173.033V17.3254H177.146C177.984 17.3254 178.719 17.4885 179.336 17.8031ZM178.532 22.6733C178.87 22.3471 179.045 21.881 179.045 21.2751C179.045 20.6693 178.87 20.1916 178.532 19.8653C178.183 19.5391 177.682 19.376 177.029 19.376H175.235V23.1627H177.029C177.693 23.1627 178.194 22.9995 178.532 22.6733Z" fill="#17286A"/>
<path d="M184.334 19.376H181.293V17.3137H189.566V19.376H186.525V28.2193H184.334V19.376Z" fill="#17286A"/>
<path d="M196.312 25.8891H191.908L191.069 28.2309H188.82L193.05 17.3254H195.217L199.458 28.2309H197.151L196.312 25.8891ZM195.625 23.9782L194.122 19.8071L192.619 23.9782H195.625Z" fill="#17286A"/>
<path d="M201.73 19.376H198.701V17.3137H206.961V19.376H203.932V28.2193H201.73V19.376Z" fill="#17286A"/>
<path d="M210.13 17.3137H207.94V28.2193H210.13V17.3137Z" fill="#17286A"/>
<path d="M214.115 27.6717C213.323 27.1824 212.705 26.5182 212.263 25.656C211.82 24.7938 211.587 23.8385 211.587 22.7666C211.587 21.6946 211.808 20.7392 212.263 19.877C212.705 19.0148 213.323 18.3507 214.115 17.8614C214.907 17.372 215.793 17.1273 216.772 17.1273C217.75 17.1273 218.636 17.372 219.428 17.8614C220.209 18.3507 220.826 19.0265 221.281 19.877C221.735 20.7392 221.956 21.6946 221.956 22.7666C221.956 23.8385 221.735 24.8055 221.281 25.656C220.826 26.5182 220.209 27.1824 219.428 27.6717C218.636 28.1611 217.762 28.4058 216.772 28.4058C215.781 28.4058 214.896 28.1611 214.115 27.6717ZM218.298 25.8075C218.752 25.5162 219.102 25.0968 219.358 24.5725C219.615 24.0482 219.743 23.4423 219.743 22.7666C219.743 22.0908 219.615 21.4849 219.358 20.9606C219.102 20.4363 218.741 20.0168 218.298 19.7256C217.844 19.4343 217.343 19.2828 216.783 19.2828C216.224 19.2828 215.723 19.4343 215.269 19.7256C214.814 20.0168 214.465 20.4363 214.208 20.9606C213.952 21.4965 213.824 22.0908 213.824 22.7666C213.824 23.4423 213.952 24.0482 214.208 24.5725C214.465 25.1084 214.814 25.5162 215.269 25.8075C215.723 26.0988 216.224 26.2503 216.783 26.2503C217.343 26.2503 217.855 26.0988 218.298 25.8075Z" fill="#17286A"/>
<path d="M232.116 17.3137V28.2193H230.31L225.58 21.6014V28.2193H223.413V17.3137H225.23L229.949 23.9433V17.3137H232.116Z" fill="#17286A"/>
<path d="M132.277 44.799L132.265 36.8645L128.84 43.4825H128.21L124.785 36.9112V44.799H123.48V33.9052H124.598L128.548 41.56L132.451 33.9052H133.57L133.582 44.799H132.277Z" fill="#17286A"/>
<path d="M137.194 43.6805C136.483 42.8533 136.133 41.6532 136.133 40.1036V33.9052H137.485V40.0453C137.485 42.3872 138.37 43.5524 140.153 43.5524C141.015 43.5524 141.691 43.2611 142.145 42.6902C142.611 42.1193 142.833 41.2338 142.833 40.057V33.9168H144.149V40.1153C144.149 41.6882 143.8 42.8766 143.089 43.7038C142.378 44.5311 141.4 44.9389 140.13 44.9389C138.86 44.9389 137.881 44.5194 137.17 43.6922" fill="#17286A"/>
<path d="M146.736 33.9052H148.099V43.4475H153.226V44.799H146.736V33.9052Z" fill="#17286A"/>
<path d="M162.745 33.9052V44.799H161.393V39.9405H155.94V44.799H154.589V33.9052H155.94V38.5889H161.393V33.9052H162.745Z" fill="#17286A"/>
<path d="M167.079 44.2048C166.31 43.7271 165.704 43.0513 165.273 42.2008C164.842 41.3502 164.621 40.3948 164.621 39.3462C164.621 38.2976 164.842 37.3422 165.273 36.4917C165.704 35.6411 166.31 34.977 167.079 34.4877C167.848 34.01 168.71 33.7653 169.666 33.7653C170.621 33.7653 171.472 34.01 172.241 34.4877C173.01 34.9654 173.604 35.6411 174.046 36.48C174.478 37.3306 174.699 38.2743 174.699 39.3346C174.699 40.3948 174.478 41.3502 174.046 42.1891C173.615 43.0397 173.01 43.7038 172.241 44.1815C171.472 44.6592 170.609 44.9039 169.666 44.9039C168.722 44.9039 167.848 44.6592 167.079 44.1815M171.541 42.9698C172.101 42.6086 172.532 42.1076 172.858 41.4668C173.184 40.8259 173.336 40.1152 173.336 39.3229C173.336 38.5306 173.173 37.8199 172.858 37.1791C172.543 36.5383 172.101 36.0373 171.541 35.6761C170.982 35.3149 170.365 35.1285 169.666 35.1285C168.967 35.1285 168.337 35.3149 167.778 35.6761C167.219 36.0373 166.776 36.5383 166.45 37.1791C166.124 37.8199 165.972 38.5306 165.972 39.3229C165.972 40.1152 166.135 40.8259 166.45 41.4668C166.764 42.1076 167.207 42.6086 167.778 42.9698C168.337 43.331 168.978 43.5174 169.666 43.5174C170.353 43.5174 170.982 43.331 171.541 42.9698Z" fill="#17286A"/>
<path d="M177.542 43.6805C176.831 42.8533 176.481 41.6532 176.481 40.1036V33.9052H177.833V40.0453C177.833 42.3872 178.718 43.5524 180.501 43.5524C181.363 43.5524 182.039 43.2611 182.493 42.6902C182.96 42.1193 183.181 41.2338 183.181 40.057V33.9168H184.498V40.1153C184.498 41.6882 184.148 42.8766 183.437 43.7038C182.727 44.5311 181.748 44.9389 180.478 44.9389C179.208 44.9389 178.229 44.5194 177.518 43.6922" fill="#17286A"/>
<path d="M187.783 44.5427C187.119 44.2864 186.595 43.9602 186.222 43.5524L186.723 42.3406C187.084 42.7135 187.55 43.0164 188.11 43.2494C188.669 43.4825 189.251 43.599 189.846 43.599C190.626 43.599 191.221 43.4475 191.605 43.1446C191.99 42.8417 192.188 42.4338 192.188 41.9212C192.188 41.5483 192.083 41.2454 191.873 41.0124C191.663 40.7794 191.395 40.6046 191.092 40.4764C190.778 40.3483 190.335 40.2085 189.776 40.057C189.065 39.8589 188.483 39.6609 188.051 39.4628C187.609 39.2647 187.236 38.9618 186.933 38.554C186.618 38.1462 186.467 37.5869 186.467 36.8995C186.467 36.3169 186.607 35.7927 186.863 35.3266C187.131 34.8606 187.539 34.4877 188.075 34.2081C188.622 33.9284 189.286 33.7886 190.09 33.7886C190.65 33.7886 191.197 33.8702 191.745 34.0333C192.281 34.1964 192.747 34.4411 193.143 34.744L192.7 35.9907C192.304 35.6994 191.873 35.4781 191.43 35.3266C190.976 35.1751 190.533 35.1052 190.102 35.1052C189.333 35.1052 188.762 35.2683 188.378 35.5946C187.993 35.9208 187.807 36.3286 187.807 36.8413C187.807 37.2141 187.912 37.517 188.133 37.7501C188.354 37.9831 188.622 38.1695 188.937 38.2977C189.263 38.4258 189.694 38.5656 190.242 38.7171C190.953 38.9152 191.535 39.1132 191.966 39.3113C192.397 39.5094 192.77 39.8123 193.085 40.2084C193.399 40.6162 193.551 41.1639 193.551 41.8397C193.551 42.4106 193.411 42.9349 193.143 43.4009C192.875 43.8786 192.456 44.2514 191.908 44.5194C191.36 44.7991 190.685 44.9272 189.881 44.9272C189.17 44.9272 188.483 44.799 187.818 44.5427" fill="#17286A"/>
<path d="M202.184 43.4475V44.799H195.298V33.9052H201.986V35.2567H196.65V38.6006H201.404V39.9288H196.65V43.4475H202.184Z" fill="#17286A"/>
<path d="M24.4675 36.9461C21.7295 36.9461 19.2944 36.3519 17.1505 35.1518C15.0067 33.9517 13.3406 32.2856 12.1405 30.1418C10.9404 27.9979 10.3462 25.5628 10.3462 22.8248C10.3462 20.0867 10.9404 17.6516 12.1405 15.5078C13.3406 13.364 15.0067 11.6862 17.1505 10.4978C19.2944 9.29767 21.7295 8.70348 24.4675 8.70348C27.7881 8.70348 30.7126 9.68218 33.2176 11.6396V1.57293C30.4213 0.524313 27.3338 0 23.9549 0C19.4109 0 15.3213 0.978692 11.6861 2.9361C8.05095 4.89351 5.19638 7.59661 3.11081 11.0687C1.02523 14.5408 -0.0117188 18.4556 -0.0117188 22.8248C-0.0117188 27.194 1.02523 31.1205 3.11081 34.5809C5.19638 38.053 8.05095 40.7561 11.6861 42.7135C15.3213 44.6709 19.3876 45.6496 23.885 45.6496C27.2755 45.6496 30.3747 45.1136 33.206 44.065V33.975C30.6893 35.9558 27.7765 36.9461 24.4559 36.9461" fill="#17286A"/>
<path d="M58.8737 30.7127C61.7749 29.4543 64.0119 27.6367 65.5848 25.2599C67.1578 22.883 67.95 20.0634 67.95 16.7778C67.95 13.4921 67.1694 10.6609 65.6198 8.26073C64.0702 5.86057 61.8448 4.01966 58.9669 2.71473C56.0891 1.40979 52.6869 0.757324 48.7838 0.757324H40.1152V9.07633H48.2128C51.2771 9.07633 53.619 9.74044 55.2152 11.0687C56.8115 12.3969 57.6154 14.2961 57.6154 16.7778C57.6154 19.2595 56.8231 21.112 55.2152 22.4519C53.619 23.7918 51.2771 24.4676 48.2128 24.4676H40.1152V32.6002H49.2848L57.8018 44.8923H68.7773L58.8737 30.701V30.7127Z" fill="#17286A"/>
<path d="M113.437 0.757324H105.048L88.7828 28.196L73.8809 3.44876V19.7838L86.3244 40.2434H90.9266L103.918 18.4206L103.953 34.0682H113.53L113.437 0.757324Z" fill="#17286A"/>
<path d="M103.988 44.8922H113.565L113.53 36.5383H103.964L103.988 44.8922Z" fill="#ED6940"/>
</g>
</svg>
